<svg width="31" height="32" viewBox="0 0 31 32" fill="none" xmlns="http://www.w3.org/2000/svg">
<path d="M4.3934 26.6066C6.49119 28.7044 9.16393 30.133 12.0736 30.7118C14.9834 31.2906 17.9994 30.9935 20.7403 29.8582C23.4811 28.7229 25.8238 26.8003 27.472 24.3336C29.1203 21.8668 30 18.9667 30 16C30 13.0333 29.1203 10.1332 27.472 7.66645C25.8238 5.19971 23.4811 3.27712 20.7403 2.14181C17.9994 1.00649 14.9834 0.709443 12.0736 1.28822C9.16393 1.867 6.49119 3.29561 4.3934 5.3934" stroke="#F08718" stroke-width="2" stroke-linecap="round"/>
<path d="M13.5 8.5L19.5 16M19.5 16L13.5 23.5M19.5 16H1.5" stroke="#F08718" stroke-width="2" stroke-linecap="round"/>
</svg>
