<svg width="41" height="32" viewBox="0 0 41 32" fill="none" xmlns="http://www.w3.org/2000/svg">
<path fill-rule="evenodd" clip-rule="evenodd" d="M21.9922 2.26949C24.7543 1.7283 27.6171 2.00617 30.2181 3.06742C32.819 4.12862 35.0399 5.92485 36.6015 8.22698C38.163 10.529 38.9956 13.234 38.9956 16C38.9956 18.766 38.163 21.471 36.6015 23.773C35.0399 26.0751 32.819 27.8714 30.2181 28.9326C27.6171 29.9938 24.7543 30.2717 21.9922 29.7305C19.2302 29.1893 16.6949 27.8539 14.7062 25.8949C14.3123 25.5069 13.6778 25.511 13.289 25.9041C12.9001 26.2971 12.9042 26.9303 13.2981 27.3182C15.5688 29.5549 18.4602 31.0766 21.606 31.693C24.7518 32.3094 28.0126 31.9932 30.9767 30.7838C33.9409 29.5744 36.4765 27.5254 38.2614 24.8941C40.0464 22.2626 41 19.1674 41 16C41 12.8326 40.0464 9.73742 38.2614 7.10592C36.4765 4.47458 33.9409 2.42563 30.9767 1.21621C28.0126 0.00682724 24.7518 -0.309406 21.606 0.306966C18.4602 0.92335 15.5688 2.4451 13.2981 4.68175C12.9042 5.06974 12.9001 5.7029 13.289 6.09593C13.6778 6.48897 14.3123 6.49305 14.7062 6.10505C16.6949 4.14613 19.2302 2.81066 21.9922 2.26949Z"/>
<path d="M23.2 8.60007C22.8686 8.15824 22.9582 7.53144 23.4 7.20007C23.8418 6.8687 24.4686 6.95824 24.8 7.40007L30.8 15.4001C31.0667 15.7556 31.0667 16.2445 30.8 16.6001L24.8 24.6001C24.4686 25.0419 23.8418 25.1314 23.4 24.8001C22.9582 24.4687 22.8686 23.8419 23.2 23.4001L28 17H0.988025C0.442355 17 0 16.5523 0 16C0 15.4477 0.442355 15 0.988025 15H28L23.2 8.60007Z"/>
</svg>
