<svg width="24" height="24" viewBox="0 0 24 24" fill="none" xmlns="http://www.w3.org/2000/svg">
<path d="M5 6.42857C5 5.61167 5.64333 5 6.375 5C7.10667 5 7.75 5.61167 7.75 6.42857C7.75 7.24548 7.10667 7.85714 6.375 7.85714C5.64333 7.85714 5 7.24548 5 6.42857ZM6.375 1C3.37588 1 1 3.46129 1 6.42857C1 9.39585 3.37588 11.8571 6.375 11.8571C8.66277 11.8571 10.5884 10.4236 11.3725 8.42857L21 8.42857C22.1046 8.42857 23 7.53314 23 6.42857C23 5.324 22.1046 4.42857 21 4.42857L11.3725 4.42857C10.5884 2.43359 8.66277 1 6.375 1ZM16.25 17.5714C16.25 16.7545 16.8933 16.1429 17.625 16.1429C18.3567 16.1429 19 16.7545 19 17.5714C19 18.3883 18.3567 19 17.625 19C16.8933 19 16.25 18.3883 16.25 17.5714ZM17.625 12.1429C15.3372 12.1429 13.4116 13.5764 12.6275 15.5714L3 15.5714C1.89543 15.5714 1 16.4669 1 17.5714C1 18.676 1.89543 19.5714 3 19.5714L12.6275 19.5714C13.4116 21.5664 15.3372 23 17.625 23C20.6241 23 23 20.5387 23 17.5714C23 14.6042 20.6241 12.1429 17.625 12.1429Z" fill="#999999" stroke="white" stroke-width="2"/>
</svg>
