<svg width="16" height="14" viewBox="0 0 16 14" fill="none" xmlns="http://www.w3.org/2000/svg">
<path d="M14 5H2M14 5C14.5523 5 15 4.55228 15 4V2C15 1.44772 14.5523 1 14 1H2C1.44772 1 1 1.44772 1 2V4C1 4.55228 1.44772 5 2 5M14 5C14.5523 5 15 5.44772 15 6V8C15 8.55228 14.5523 9 14 9M2 5C1.44772 5 1 5.44772 1 6V8C1 8.55228 1.44772 9 2 9M14 9H2M14 9C14.5523 9 15 9.44772 15 10V12C15 12.5523 14.5523 13 14 13H2C1.44772 13 1 12.5523 1 12V10C1 9.44772 1.44772 9 2 9M2.5 3H5.5M2.5 7H5.5M2.5 11H5.5" stroke="#999999"/>
</svg>
