<svg width="23" height="24" viewBox="0 0 23 24" fill="none" xmlns="http://www.w3.org/2000/svg">
<path d="M16 6C16 5.44772 16.4477 5 17 5C17.5523 5 18 5.44772 18 6C18 6.55228 17.5523 7 17 7C16.4477 7 16 6.55228 16 6ZM17 1C14.2386 1 12 3.23858 12 6C12 6.13297 12.0052 6.26486 12.0155 6.39547L9.08166 8.06241C8.23291 7.39748 7.1624 7 6 7C3.23858 7 1 9.23858 1 12C1 14.7614 3.23858 17 6 17C7.17104 17 8.24876 16.5966 9.10048 15.9228L12.0168 17.5883C12.0057 17.7242 12 17.8615 12 18C12 20.7614 14.2386 23 17 23C19.7614 23 22 20.7614 22 18C22 15.2386 19.7614 13 17 13C15.8357 13 14.7637 13.3988 13.9143 14.0656L10.9848 12.3925C10.9949 12.2629 11 12.132 11 12C11 11.8597 10.9942 11.7205 10.9828 11.5828L13.9016 9.92439C14.753 10.5973 15.8299 11 17 11C19.7614 11 22 8.76142 22 6C22 3.23858 19.7614 1 17 1ZM5 12C5 11.4477 5.44772 11 6 11C6.55228 11 7 11.4477 7 12C7 12.5523 6.55228 13 6 13C5.44772 13 5 12.5523 5 12ZM16 18C16 17.4477 16.4477 17 17 17C17.5523 17 18 17.4477 18 18C18 18.5523 17.5523 19 17 19C16.4477 19 16 18.5523 16 18Z" fill="#999999" stroke="white" stroke-width="2"/>
</svg>
