<svg width="22" height="25" viewBox="0 0 22 25" fill="none" xmlns="http://www.w3.org/2000/svg">
<path fill-rule="evenodd" clip-rule="evenodd" d="M8.40802 3.70312C8.78572 2.62457 9.80418 1.8519 11.0013 1.8519C12.1984 1.8519 13.2169 2.62457 13.5946 3.70312H8.40802ZM6.50979 3.70312C6.93471 1.59022 8.78416 0 11.0013 0C13.2184 0 15.0679 1.59022 15.4928 3.70312H19.25C20.7688 3.70312 22 4.94681 22 6.48097C22 8.01514 20.7688 9.25882 19.25 9.25882H2.75C1.23122 9.25882 0 8.01514 0 6.48097C0 4.94681 1.23122 3.70312 2.75 3.70312H6.50979ZM2.75 5.55502C2.24374 5.55502 1.83333 5.96959 1.83333 6.48097C1.83333 6.99236 2.24374 7.40692 2.75 7.40692H19.25C19.7563 7.40692 20.1667 6.99236 20.1667 6.48097C20.1667 5.96958 19.7563 5.55502 19.25 5.55502H2.75ZM3.66667 10.1855C4.17293 10.1855 4.58333 10.6001 4.58333 11.1115V22.2229C4.58333 22.7343 4.99374 23.1488 5.5 23.1488H16.5C17.0063 23.1488 17.4167 22.7343 17.4167 22.2229V11.1115C17.4167 10.6001 17.8271 10.1855 18.3333 10.1855C18.8396 10.1855 19.25 10.6001 19.25 11.1115V22.2229C19.25 23.757 18.0188 25.0007 16.5 25.0007H5.5C3.98122 25.0007 2.75 23.757 2.75 22.2229V11.1115C2.75 10.6001 3.16041 10.1855 3.66667 10.1855ZM9.85547 13.6582C10.2352 13.6582 10.543 13.9126 10.543 14.2264V21.4235C10.543 21.7374 10.2352 21.9917 9.85547 21.9917C9.47577 21.9917 9.16797 21.7374 9.16797 21.4235V14.2264C9.16797 13.9126 9.47577 13.6582 9.85547 13.6582ZM15.125 12.5011C15.125 12.1176 14.8172 11.8066 14.4375 11.8066C14.0578 11.8066 13.75 12.1176 13.75 12.5011V21.2976C13.75 21.6812 14.0578 21.9921 14.4375 21.9921C14.8172 21.9921 15.125 21.6812 15.125 21.2976V12.5011Z" fill="#F08718"/>
</svg>
