<svg width="20" height="21" viewBox="0 0 20 21" fill="none" xmlns="http://www.w3.org/2000/svg">
<path d="M2.78249 17.2175C4.11108 18.5461 5.80382 19.4509 7.64664 19.8175C9.48946 20.184 11.3996 19.9959 13.1355 19.2769C14.8714 18.5578 16.3551 17.3402 17.399 15.7779C18.4428 14.2157 19 12.3789 19 10.5C19 8.62108 18.4428 6.78435 17.399 5.22208C16.3551 3.65982 14.8714 2.44218 13.1355 1.72314C11.3996 1.00411 9.48946 0.81598 7.64664 1.18254C5.80382 1.5491 4.11109 2.45389 2.78249 3.78248" stroke="#999999" stroke-linecap="round"/>
<path d="M5 11V10H14V11H5Z" fill="#999999"/>
<path d="M10 15H9L9 6L10 6L10 15Z" fill="#999999"/>
</svg>
