<svg width="30" height="27" viewBox="0 0 30 27" xmlns="http://www.w3.org/2000/svg">
<path fill-rule="evenodd" clip-rule="evenodd" d="M28.0386 3.84668H5.8078C5.50821 3.84668 5.2244 3.981 5.03446 4.21269C4.84452 4.44438 4.76846 4.74902 4.82722 5.0428L6.7503 14.6582C6.84378 15.1256 7.25419 15.4621 7.73088 15.4621H26.4561C26.918 15.4664 27.3663 15.306 27.7207 15.0095C28.0713 14.7161 28.307 14.3087 28.3867 13.859L29.9605 6.18212L29.9645 6.1613C30.0162 5.87909 30.0053 5.58899 29.9326 5.31145C29.86 5.03391 29.7273 4.77569 29.544 4.55498C29.3607 4.33428 29.1313 4.15647 28.8718 4.03409C28.6123 3.91171 28.3291 3.84774 28.0422 3.84669L28.0386 3.84668ZM27.9877 5.84668L26.4265 13.4621H8.55068L7.0276 5.84668H27.9877Z" fill="#F08718"/>
<path fill-rule="evenodd" clip-rule="evenodd" d="M4.02692 2H0.999924C0.447639 2 -7.58171e-05 1.55228 -7.58171e-05 1C-7.58171e-05 0.447715 0.447639 9.85383e-09 0.999924 9.85383e-09L4.05741 6.94585e-08C4.05748 6.94585e-08 4.05755 9.85383e-09 4.05762 9.85383e-09C4.50974 -4.52897e-05 4.948 0.156097 5.29824 0.442011C5.64013 0.7211 5.87765 1.10711 5.97294 1.53739L6.77485 4.59226C6.91507 5.12644 6.5957 5.67316 6.06151 5.81338C5.52733 5.95361 4.98061 5.63424 4.84039 5.10005L4.03269 2.02313C4.03068 2.01544 4.02875 2.00773 4.02692 2Z" fill="#F08718"/>
<path fill-rule="evenodd" clip-rule="evenodd" d="M7.53473 13.4815C6.99317 13.5898 6.64195 14.1167 6.75026 14.6582L7.55796 18.6967L7.55874 18.7006C7.64918 19.1436 7.88992 19.5418 8.24022 19.8278C8.59047 20.1137 9.02872 20.2698 9.48084 20.2698H24.1924C24.7447 20.2698 25.1924 19.8221 25.1924 19.2698C25.1924 18.7175 24.7447 18.2698 24.1924 18.2698H9.51219L8.71143 14.266C8.60311 13.7244 8.07629 13.3732 7.53473 13.4815Z" fill="#F08718"/>
<path fill-rule="evenodd" clip-rule="evenodd" d="M22.2308 25.0771C22.2096 25.0771 22.1924 25.0599 22.1924 25.0387C22.1924 25.0174 22.2096 25.0002 22.2308 25.0002C22.2521 25.0002 22.2693 25.0174 22.2693 25.0387C22.2693 25.0599 22.2521 25.0771 22.2308 25.0771ZM24.1924 25.0387C24.1924 23.9554 23.3142 23.0771 22.2308 23.0771C21.1475 23.0771 20.2693 23.9554 20.2693 25.0387C20.2693 26.122 21.1475 27.0002 22.2308 27.0002C23.3142 27.0002 24.1924 26.122 24.1924 25.0387Z" fill="#F08718"/>
<path fill-rule="evenodd" clip-rule="evenodd" d="M10.6154 25.0771C10.5941 25.0771 10.5769 25.0599 10.5769 25.0387C10.5769 25.0174 10.5941 25.0002 10.6154 25.0002C10.6366 25.0002 10.6538 25.0174 10.6538 25.0387C10.6538 25.0599 10.6366 25.0771 10.6154 25.0771ZM12.5769 25.0387C12.5769 23.9554 11.6987 23.0771 10.6154 23.0771C9.53204 23.0771 8.65383 23.9554 8.65383 25.0387C8.65383 26.122 9.53204 27.0002 10.6154 27.0002C11.6987 27.0002 12.5769 26.122 12.5769 25.0387Z" fill="#F08718"/>
</svg>
