<svg width="29" height="26" viewBox="0 0 29 26" fill="none" xmlns="http://www.w3.org/2000/svg">
<path d="M5 8.89256C5 6.71638 6.73126 5 8.80838 5C9.80909 5 10.7747 5.40303 11.4912 6.12989L13.0756 7.73734C13.4515 8.11865 13.9646 8.33333 14.5 8.33333C15.0354 8.33333 15.5485 8.11865 15.9244 7.73734L17.5088 6.12989C18.2253 5.40303 19.1909 5 20.1916 5C22.2687 5 24 6.71638 24 8.89256C24 9.93411 23.5919 10.9273 22.8744 11.6552L14.5 20.151L6.12558 11.6552C5.40811 10.9273 5 9.93411 5 8.89256ZM8.80838 1C4.4683 1 1 4.56145 1 8.89256C1 10.9766 1.81576 12.9809 3.27688 14.4632L13.0756 24.404C13.4515 24.7853 13.9646 25 14.5 25C15.0354 25 15.5485 24.7853 15.9244 24.404L25.7231 14.4632C27.1842 12.9809 28 10.9766 28 8.89256C28 4.56145 24.5317 1 20.1916 1C18.1113 1 16.1222 1.83864 14.6601 3.32189L14.5 3.48434L14.3399 3.32189C12.8778 1.83865 10.8887 1 8.80838 1Z" fill="#999999" stroke="white" stroke-width="2"/>
</svg>
