<svg width="16" height="12" viewBox="0 0 16 12" fill="none" xmlns="http://www.w3.org/2000/svg">
<path d="M1 6L0.303642 5.72146C0.232119 5.90027 0.232119 6.09973 0.303642 6.27854L1 6ZM15 6L15.6964 6.27854C15.7679 6.09974 15.7679 5.90026 15.6964 5.72146L15 6ZM7.99998 10.25C5.77897 10.25 4.21668 9.1474 3.18246 7.99828C2.66483 7.42313 2.28904 6.84544 2.04314 6.41149C1.92061 6.19526 1.8315 6.0168 1.7741 5.89503C1.74542 5.83421 1.72475 5.78772 1.71185 5.75795C1.7054 5.74307 1.7009 5.73239 1.69833 5.7262C1.69704 5.72311 1.69624 5.72114 1.69591 5.72034C1.69575 5.71994 1.6957 5.71983 1.69578 5.72001C1.69581 5.7201 1.69588 5.72027 1.69598 5.72051C1.69603 5.72063 1.69612 5.72087 1.69615 5.72093C1.69625 5.72118 1.69636 5.72146 1 6C0.303642 6.27854 0.303767 6.27885 0.3039 6.27919C0.303954 6.27932 0.304095 6.27967 0.304205 6.27995C0.304424 6.28049 0.304675 6.28111 0.304956 6.28181C0.305521 6.28321 0.306211 6.28491 0.307027 6.28691C0.30866 6.29091 0.310799 6.29612 0.313449 6.30249C0.318748 6.31522 0.326092 6.33261 0.335514 6.35436C0.354352 6.39783 0.381528 6.45876 0.417307 6.53466C0.48881 6.68633 0.595011 6.89849 0.738105 7.15101C1.02345 7.65456 1.46016 8.32687 2.06752 9.00172C3.2833 10.3526 5.221 11.75 7.99998 11.75V10.25ZM1 6C1.69636 6.27854 1.69625 6.27882 1.69615 6.27907C1.69612 6.27913 1.69603 6.27937 1.69598 6.27949C1.69588 6.27973 1.69581 6.2799 1.69578 6.27999C1.6957 6.28017 1.69575 6.28006 1.69591 6.27966C1.69624 6.27886 1.69704 6.27689 1.69833 6.2738C1.7009 6.26761 1.7054 6.25693 1.71185 6.24205C1.72475 6.21228 1.74542 6.16579 1.7741 6.10497C1.8315 5.9832 1.92061 5.80474 2.04314 5.58851C2.28904 5.15456 2.66483 4.57687 3.18246 4.00172C4.21668 2.85259 5.77897 1.75 7.99998 1.75V0.25C5.221 0.25 3.2833 1.64741 2.06752 2.99828C1.46016 3.67313 1.02345 4.34544 0.738105 4.84899C0.595011 5.10151 0.48881 5.31367 0.417307 5.46534C0.381528 5.54124 0.354352 5.60217 0.335514 5.64564C0.326092 5.66739 0.318748 5.68478 0.313449 5.69751C0.310799 5.70388 0.30866 5.70909 0.307027 5.71309C0.306211 5.71509 0.305521 5.71679 0.304956 5.71819C0.304675 5.71889 0.304424 5.71951 0.304205 5.72005C0.304095 5.72033 0.303954 5.72068 0.3039 5.72081C0.303767 5.72115 0.303642 5.72146 1 6ZM7.99998 1.75C10.221 1.75 11.7833 2.8526 12.8175 4.00172C13.3352 4.57687 13.711 5.15456 13.9569 5.58851C14.0794 5.80474 14.1685 5.98321 14.2259 6.10497C14.2546 6.16579 14.2753 6.21229 14.2882 6.24205C14.2946 6.25693 14.2991 6.26762 14.3017 6.2738C14.303 6.2769 14.3038 6.27886 14.3041 6.27967C14.3043 6.28007 14.3043 6.28018 14.3042 6.27999C14.3042 6.2799 14.3041 6.27973 14.304 6.27949C14.304 6.27937 14.3039 6.27913 14.3039 6.27907C14.3038 6.27882 14.3036 6.27854 15 6C15.6964 5.72146 15.6962 5.72114 15.6961 5.72081C15.696 5.72067 15.6959 5.72032 15.6958 5.72005C15.6956 5.71951 15.6953 5.71888 15.695 5.71819C15.6945 5.71679 15.6938 5.71509 15.693 5.71309C15.6913 5.70908 15.6892 5.70388 15.6865 5.69751C15.6812 5.68478 15.6739 5.66738 15.6645 5.64564C15.6456 5.60217 15.6185 5.54124 15.5827 5.46534C15.5112 5.31367 15.405 5.10151 15.2619 4.84899C14.9765 4.34544 14.5398 3.67313 13.9325 2.99828C12.7167 1.6474 10.779 0.25 7.99998 0.25V1.75ZM15 6C14.3036 5.72146 14.3038 5.72118 14.3039 5.72093C14.3039 5.72087 14.304 5.72063 14.304 5.72051C14.3041 5.72027 14.3042 5.7201 14.3042 5.72001C14.3043 5.71982 14.3043 5.71993 14.3041 5.72033C14.3038 5.72114 14.303 5.7231 14.3017 5.7262C14.2991 5.73238 14.2946 5.74307 14.2882 5.75795C14.2753 5.78771 14.2546 5.83421 14.2259 5.89503C14.1685 6.01679 14.0794 6.19526 13.9569 6.41149C13.711 6.84544 13.3352 7.42313 12.8175 7.99828C11.7833 9.1474 10.221 10.25 7.99998 10.25V11.75C10.779 11.75 12.7167 10.3526 13.9325 9.00172C14.5398 8.32687 14.9765 7.65456 15.2619 7.15101C15.405 6.89849 15.5112 6.68633 15.5827 6.53466C15.6185 6.45876 15.6456 6.39783 15.6645 6.35436C15.6739 6.33262 15.6812 6.31522 15.6865 6.30249C15.6892 6.29612 15.6913 6.29092 15.693 6.28691C15.6938 6.28491 15.6945 6.28321 15.695 6.28181C15.6953 6.28112 15.6956 6.28049 15.6958 6.27995C15.6959 6.27968 15.696 6.27933 15.6961 6.27919C15.6962 6.27886 15.6964 6.27854 15 6ZM8 7.25C7.30964 7.25 6.75 6.69036 6.75 6H5.25C5.25 7.51878 6.48122 8.75 8 8.75V7.25ZM9.25 6C9.25 6.69036 8.69036 7.25 8 7.25V8.75C9.51878 8.75 10.75 7.51878 10.75 6H9.25ZM8 4.75C8.69036 4.75 9.25 5.30964 9.25 6H10.75C10.75 4.48122 9.51878 3.25 8 3.25V4.75ZM8 3.25C6.48122 3.25 5.25 4.48122 5.25 6H6.75C6.75 5.30964 7.30964 4.75 8 4.75V3.25Z" fill="#999999"/>
</svg>
