<svg width="6" height="5" viewBox="0 0 6 5" fill="none" xmlns="http://www.w3.org/2000/svg">
<path d="M3.21875 4.99716C2.78906 4.99716 2.39666 4.8924 2.04155 4.68288C1.68643 4.46982 1.40234 4.18572 1.18928 3.83061C0.979759 3.4755 0.875 3.0831 0.875 2.65341C0.875 2.22017 0.979759 1.82777 1.18928 1.47621C1.40234 1.12109 1.68643 0.838778 2.04155 0.629261C2.39666 0.416193 2.78906 0.309659 3.21875 0.309659C3.65199 0.309659 4.04439 0.416193 4.39595 0.629261C4.75107 0.838778 5.03338 1.12109 5.2429 1.47621C5.45597 1.82777 5.5625 2.22017 5.5625 2.65341C5.5625 3.0831 5.45597 3.4755 5.2429 3.83061C5.03338 4.18572 4.75107 4.46982 4.39595 4.68288C4.04439 4.8924 3.65199 4.99716 3.21875 4.99716Z" fill="#999999"/>
</svg>
