<svg width="52" height="52" viewBox="0 0 52 52" fill="none" xmlns="http://www.w3.org/2000/svg">
<path d="M34.3333 20.4444C34.3333 25.0468 30.6024 28.7778 26 28.7778C21.3976 28.7778 17.6667 25.0468 17.6667 20.4444C17.6667 15.8421 21.3976 12.1111 26 12.1111C30.6024 12.1111 34.3333 15.8421 34.3333 20.4444Z" fill="#F08718"/>
<path d="M51 26C51 39.8071 39.8071 51 26 51C12.1929 51 1 39.8071 1 26C1 12.1929 12.1929 1 26 1C39.8071 1 51 12.1929 51 26Z" fill="#F08718"/>
<path d="M42.6667 44.6275C41.6836 41.6743 39.5174 39.0647 36.5039 37.2034C33.4905 35.3422 29.7983 34.3333 26 34.3333C22.2017 34.3333 18.5095 35.3422 15.4961 37.2034C12.4826 39.0647 10.3164 41.6743 9.33333 44.6275M34.3333 20.4444C34.3333 25.0468 30.6024 28.7778 26 28.7778C21.3976 28.7778 17.6667 25.0468 17.6667 20.4444C17.6667 15.8421 21.3976 12.1111 26 12.1111C30.6024 12.1111 34.3333 15.8421 34.3333 20.4444ZM51 26C51 39.8071 39.8071 51 26 51C12.1929 51 1 39.8071 1 26C1 12.1929 12.1929 1 26 1C39.8071 1 51 12.1929 51 26Z" stroke="#FCFCFC" stroke-width="2"/>
</svg>
