<svg width="29" height="29" viewBox="0 0 29 29" fill="none" xmlns="http://www.w3.org/2000/svg">
<path d="M10.6429 1H2.92857C1.86345 1 1 1.86345 1 2.92857V10.6429C1 11.708 1.86345 12.5714 2.92857 12.5714H10.6429C11.708 12.5714 12.5714 11.708 12.5714 10.6429V2.92857C12.5714 1.86345 11.708 1 10.6429 1Z" stroke="#999999" stroke-width="2"/>
<path d="M26.0714 16.4286H18.3571C17.292 16.4286 16.4286 17.292 16.4286 18.3571V26.0714C16.4286 27.1365 17.292 28 18.3571 28H26.0714C27.1365 28 28 27.1365 28 26.0714V18.3571C28 17.292 27.1365 16.4286 26.0714 16.4286Z" stroke="#999999" stroke-width="2"/>
<path d="M10.6429 16.4286H2.92857C1.86345 16.4286 1 17.292 1 18.3571V26.0714C1 27.1365 1.86345 28 2.92857 28H10.6429C11.708 28 12.5714 27.1365 12.5714 26.0714V18.3571C12.5714 17.292 11.708 16.4286 10.6429 16.4286Z" stroke="#999999" stroke-width="2"/>
<circle cx="22.5" cy="6.5" r="5.5" stroke="#999999" stroke-width="2"/>
</svg>
