<svg width="29" height="27" viewBox="0 0 29 27" fill="none" xmlns="http://www.w3.org/2000/svg">
<path fill-rule="evenodd" clip-rule="evenodd" d="M5.875 2C3.72174 2 2 3.71782 2 5.80769C2 7.89756 3.72174 9.61539 5.875 9.61539C8.02826 9.61539 9.75 7.89756 9.75 5.80769C9.75 3.71782 8.02826 2 5.875 2ZM0 5.80769C1.19209e-07 2.58713 2.64348 -1.19209e-07 5.875 0C8.76414 1.19209e-07 11.1832 2.06796 11.6634 4.80769L28 4.80769V6.80769L11.6634 6.80769C11.1832 9.54743 8.76414 11.6154 5.875 11.6154C2.64348 11.6154 -1.19209e-07 9.02825 0 5.80769ZM23.125 17.3846C20.9717 17.3846 19.25 19.1024 19.25 21.1923C19.25 23.2822 20.9717 25 23.125 25C25.2783 25 27 23.2822 27 21.1923C27 19.1024 25.2783 17.3846 23.125 17.3846ZM17.3366 20.1923C17.8168 17.4526 20.2359 15.3846 23.125 15.3846C26.3565 15.3846 29 17.9717 29 21.1923C29 24.4129 26.3565 27 23.125 27C20.2359 27 17.8168 24.932 17.3366 22.1923L1 22.1923V20.1923L17.3366 20.1923Z" fill="#999999"/>
</svg>
