<svg width="29" height="29" viewBox="0 0 29 29" fill="none" xmlns="http://www.w3.org/2000/svg">
<path fill-rule="evenodd" clip-rule="evenodd" d="M14.5 2C7.59644 2 2 7.59644 2 14.5C2 17.703 3.20472 20.6247 5.18575 22.8365C5.90603 21.5901 6.98002 20.5158 8.30238 19.6991C10.099 18.5893 12.2773 18 14.5 18C16.7227 18 18.901 18.5893 20.6976 19.6991C22.02 20.5158 23.094 21.5901 23.8142 22.8365C25.7953 20.6247 27 17.703 27 14.5C27 7.59644 21.4036 2 14.5 2ZM22.3059 24.2637C21.7856 23.1614 20.8793 22.162 19.6466 21.4006C18.1888 20.5002 16.3795 20 14.5 20C12.6205 20 10.8112 20.5002 9.35337 21.4006C8.12067 22.162 7.21442 23.1614 6.6941 24.2637C8.83308 25.976 11.547 27 14.5 27C17.453 27 20.1669 25.976 22.3059 24.2637ZM0 14.5C0 6.49187 6.49187 0 14.5 0C22.5081 0 29 6.49187 29 14.5C29 22.5081 22.5081 29 14.5 29C6.49187 29 0 22.5081 0 14.5ZM14.5 8C12.567 8 11 9.567 11 11.5C11 13.433 12.567 15 14.5 15C16.433 15 18 13.433 18 11.5C18 9.567 16.433 8 14.5 8ZM9 11.5C9 8.46243 11.4624 6 14.5 6C17.5376 6 20 8.46243 20 11.5C20 14.5376 17.5376 17 14.5 17C11.4624 17 9 14.5376 9 11.5Z" fill="#999999"/>
</svg>
