<svg width="30" height="27" viewBox="0 0 30 27" fill="none" xmlns="http://www.w3.org/2000/svg">
<path fill-rule="evenodd" clip-rule="evenodd" d="M11.104 23.0003C10.5464 23.0003 10.0945 23.448 10.0945 24.0002C10.0945 24.5523 10.5464 25 11.104 25C11.6617 25 12.1136 24.5523 12.1136 24.0002C12.1136 23.448 11.6617 23.0003 11.104 23.0003ZM8.07539 24.0002C8.07539 22.3433 9.43143 21.0003 11.104 21.0003C12.7766 21.0003 14.1327 22.3433 14.1327 24.0002C14.1327 25.657 12.7766 27 11.104 27C9.43143 27 8.07539 25.657 8.07539 24.0002Z" fill="#999999"/>
<path fill-rule="evenodd" clip-rule="evenodd" d="M23.2206 23.0003C22.6629 23.0003 22.211 23.448 22.211 24.0002C22.211 24.5523 22.6629 25 23.2206 25C23.7782 25 24.2301 24.5523 24.2301 24.0002C24.2301 23.448 23.7782 23.0003 23.2206 23.0003ZM20.1919 24.0002C20.1919 22.3433 21.548 21.0003 23.2206 21.0003C24.8932 21.0003 26.2492 22.3433 26.2492 24.0002C26.2492 25.657 24.8932 27 23.2206 27C21.548 27 20.1919 25.657 20.1919 24.0002Z" fill="#999999"/>
<path fill-rule="evenodd" clip-rule="evenodd" d="M3.94962 2.02188C3.78733 2.00183 3.55536 2.00001 3.12158 2.00001H1.00955C0.45199 2.00001 0 1.5523 0 1.00001C0 0.447728 0.45199 1.3219e-05 1.00955 1.3219e-05H3.12158C3.13782 1.3219e-05 3.15407 9.88118e-06 3.1703 6.54332e-06C3.53576 -6.72472e-05 3.89686 -0.000140205 4.19958 0.0372688C4.54369 0.0797939 4.93229 0.182133 5.27947 0.473021C5.62665 0.763909 5.79299 1.12653 5.8924 1.45562C5.97984 1.74511 6.03966 2.09786 6.1002 2.45486C6.10289 2.47072 6.10558 2.48659 6.10827 2.50246L6.19538 3.01551L26.8353 3.00325C27.359 3.00285 27.8553 3.00247 28.255 3.05911C28.6977 3.12184 29.2149 3.27788 29.5965 3.74614C29.9782 4.2144 30.0232 4.74807 29.9919 5.18994C29.9635 5.58893 29.8586 6.06937 29.7479 6.57641L28.306 13.1832C28.2322 13.5216 28.159 13.8573 28.0626 14.1324C27.9529 14.4457 27.7788 14.7881 27.4382 15.0603C27.0976 15.3325 26.7231 15.4287 26.3907 15.4688C26.0988 15.504 25.7521 15.5039 25.4027 15.5038L8.31574 15.5038L8.59769 17.1645C8.66963 17.5882 8.70991 17.8145 8.7568 17.9697C8.75744 17.9718 8.75807 17.9739 8.7587 17.9759C8.76082 17.9762 8.763 17.9765 8.76522 17.9767C8.92751 17.9968 9.15947 17.9986 9.59326 17.9986H26.2209C26.7785 17.9986 27.2305 18.4463 27.2305 18.9986C27.2305 19.5509 26.7785 19.9986 26.2209 19.9986H9.59326C9.57702 19.9986 9.56079 19.9986 9.54456 19.9986C9.1791 19.9987 8.81798 19.9988 8.51526 19.9613C8.17114 19.9188 7.78254 19.8165 7.43536 19.5256C7.08818 19.2347 6.92185 18.8721 6.82244 18.543C6.73499 18.2535 6.67517 17.9008 6.61463 17.5438C6.61195 17.5279 6.60925 17.512 6.60656 17.4962L6.12983 14.6884C6.12765 14.6768 6.12567 14.6651 6.12389 14.6534L4.11714 2.83416C4.0452 2.41043 4.00492 2.18414 3.95804 2.02894C3.9574 2.02681 3.95676 2.02474 3.95614 2.02271C3.95401 2.02243 3.95184 2.02216 3.94962 2.02188ZM7.97616 13.5038H25.3557C25.7712 13.5038 25.9919 13.5021 26.1467 13.4834C26.1489 13.4832 26.151 13.4829 26.153 13.4827C26.1537 13.4807 26.1544 13.4787 26.1552 13.4767C26.2063 13.3308 26.2546 13.1174 26.3424 12.7151L27.7611 6.21459C27.8899 5.62432 27.9609 5.28756 27.9778 5.04963C27.978 5.04646 27.9782 5.04335 27.9784 5.04031C27.9753 5.03986 27.9722 5.03941 27.9691 5.03896C27.7307 5.00518 27.3834 5.00294 26.7737 5.0033L6.53492 5.01531L7.97616 13.5038ZM27.9783 4.91331L27.9779 4.91078L27.9783 4.91331Z" fill="#999999"/>
</svg>
